<svg id="Layer_1" data-name="Layer 1" xmlns="http://www.w3.org/2000/svg" viewBox="0 0 613.07556 326.42293"><title>ERFSEDS Logo No Lazy</title><path d="M997.24237,969.97839c3.86755,0.0022,7.74719-.03955,11.633-0.00146,7.76721,0.06519,15.57288.24841,23.37293,0.5282,15.6051,0.51111,31.19263,1.39856,46.52173,2.60474,1.82813,0.14185,3.63757.29785,5.45727,0.446,0.187-.16846.37647-0.34009,0.56274-0.50806,1.12964-1.01782,2.23877-2.02,3.3302-3.01758-3.007-.26917-6.01672-0.53516-9.04565-0.77063-15.37122-1.25378-31.02551-2.19934-46.69031-2.74976q-11.75153-.38654-23.48547-0.46057c-3.9054-.02673-7.80182.02673-11.68738,0.03625q-5.82733.091-11.61627,0.18152c-15.43048.35291-30.59955,1.20728-45.252,2.32532-14.65314,1.12915-28.77887,2.68274-42.1286,4.472-13.34851,1.79028-25.922,3.81879-37.48022,5.92236-11.567,2.064-22.1,4.32037-31.404,6.43738-9.30469,2.11731-17.37561,4.128-24.00671,5.83679-6.6297,1.71411-11.80682,3.1875-15.33417,4.18683C786.46478,996.46008,784.585,997,784.585,997s1.89917-.46735,5.46014-1.34369c3.56036-.881,8.798-2.09393,15.4621-3.64282,6.67133-1.51709,14.78644-3.29382,24.13123-5.14087,9.3465-1.8374,19.916-3.77216,31.47748-5.676,11.56342-1.8963,24.12817-3.69861,37.45917-5.24982,13.32935-1.55725,27.42773-2.80518,42.02612-3.85059,14.60223-1.00952,29.716-1.6366,45.07684-1.97156Q991.43927,970.05176,997.24237,969.97839Z" transform="translate(-682.79883 -840.82414)"/><path d="M1271.87842,1012.375c-3.41052-1.34753-8.39453-3.37982-14.82825-5.72955-6.42529-2.37189-14.27478-5.12927-23.35254-8.081-9.07886-2.94226-19.39587-6.069-30.77441-9.01532-11.36963-2.98267-23.78064-5.875-37.00049-8.4884-13.22766-2.62036-27.2312-4.93323-41.79455-6.95624-7.97339-1.10266-16.12573-2.0802-24.38477-2.946-1.20947,1.1499-2.45117,2.28955-3.709,3.42212,9.37061,0.86206,18.61206,1.83246,27.62817,3.01538,14.49939,1.9317,28.52661,3.95782,41.71985,6.33209,13.20251,2.36951,25.6106,5.03168,36.9895,7.80383,11.37805,2.78241,21.74268,5.59509,30.887,8.25586,9.13684,2.68268,17.05,5.20886,23.53284,7.392,6.48169,2.1864,11.55542,3.96735,15.0094,5.19818,3.44592,1.25354,5.28381,1.92206,5.28381,1.92206S1275.27393,1013.76086,1271.87842,1012.375Z" transform="translate(-682.79883 -840.82414)"/><path d="M1030.835,1138.80762l28.07813-112.03125h65.94922l-3.12988,12.68555h-53.67285l-8.77246,35h52.23633l-3.13867,12.68555H1056.1084l-9.76758,38.97461h57.48828l-3.21387,12.68555H1030.835Z" transform="translate(-682.79883 -840.82414)"/><path d="M1116.42481,1138.80762l28.07715-112.03125h27.708q9.312,0,14.084,1.45117a26.32785,26.32785,0,0,1,12.17188,7.71973q5.16065,5.6543,7.46777,15.05469a68.293,68.293,0,0,1,1.33691,21.626,87.20944,87.20944,0,0,1-7.34766,29.53613,81.30767,81.30767,0,0,1-14.1084,21.89453,44.15272,44.15272,0,0,1-18.17383,12.07422,55.36687,55.36687,0,0,1-18.15625,2.6748h-33.05957Zm15.50586-12.68555h14.56348a61.78651,61.78651,0,0,0,17.51953-2.17871,31.213,31.213,0,0,0,13.44531-8.49219q6.14356-6.30908,11.2041-17.70606a78.90151,78.90151,0,0,0,6.21484-25.92871q1.01367-12.7749-2.00586-20.30762-3.019-7.53223-9.05859-10.13477-4.34326-1.91162-13.93945-1.91211h-16.22461Z" transform="translate(-682.79883 -840.82414)"/><path d="M1214.82519,1102.585l12.10742-1.376-0.375,3.75586a27.02024,27.02024,0,0,0,2.00293,13.334,15.24531,15.24531,0,0,0,7.19336,7.24316,26.99248,26.99248,0,0,0,12.83008,2.79688q10.48535,0,17.0498-5.55273a19.53517,19.53517,0,0,0,7.22168-13.82617,14.60153,14.60153,0,0,0-2.67383-10.11035q-3.21826-4.21289-15.88672-11.166-9.81006-5.42725-13.24316-8.17773a29.674,29.674,0,0,1-8.90332-10.9668,27.75616,27.75616,0,0,1-2.06738-13.7168q1.06787-13.44873,10.32129-21.70312,9.252-8.25439,24.23047-8.25391,10.31689,0,17.34375,3.89844a25.79531,25.79531,0,0,1,10.749,11.38574,30.058,30.058,0,0,1,3.04394,16.04883l-0.26562,2.36914-12.01172,1.14551,0.27637-2.52637a18.86347,18.86347,0,0,0-1.9082-10.123,16.38339,16.38339,0,0,0-7.18164-7.248,24.015,24.015,0,0,0-11.41113-2.56934q-9.3999,0-15,4.60059a16.72649,16.72649,0,0,0-6.19629,12.1123q-0.542,6.82471,3.0957,10.50391,3.63574,3.67969,18.56348,12.07813,10.89551,6.186,14.70605,10.04395a24.03049,24.03049,0,0,1,5.64844,9.24414,29.85055,29.85055,0,0,1,1.30859,12.11035,33.70088,33.70088,0,0,1-11.72852,23.41992q-10.61279,9.36035-26.60059,9.3584-17.291,0-25.50879-9.209Q1213.335,1122.30078,1214.82519,1102.585Z" transform="translate(-682.79883 -840.82414)"/><path d="M761.59186,1126.12207s1.69378,0.06021,2.28349.05812c0.90335-.00319,1.55232-0.0613,2.68713-0.02394,2.185,0.07813,4.23073.09534,8.43752,0.09375,4.20532-.00854,9.20618.11041,15.05-0.07391,5.88239-.20117,12.13162-0.86588,19.09509-1.77026,3.41178-.4431,6.56848-0.95953,10.47992-1.7183,3.93469-.7532,8.44073-1.901,12.49652-2.76876,8.09332-1.7132,16.58166-3.77954,25.28314-6.2359,8.7196-2.45447,17.59814-5.28534,26.54443-8.53845,8.92786-3.24609,17.9859-6.88519,27.02472-10.47839,9.01886-3.61121,17.92706-7.41827,26.56342-11.4953,8.64478-4.06934,17.0152-8.3739,24.99005-12.76453,7.9762-4.40308,15.55188-8.91571,22.63409-13.37549,7.0755-4.4726,13.71893-8.81152,19.75549-12.92975,12.08722-8.24152,21.83984-15.59534,28.58118-20.85046,3.369-2.63068,5.99268-4.7298,7.77441-6.17017L1044,1014.86585l-2.63855,2.32233c-1.72412,1.511-4.26416,3.71448-7.53015,6.48083-6.536,5.52649-16.00592,13.278-27.80054,22.0282-5.90112,4.37988-12.37268,8.98468-19.30292,13.76245-6.93921,4.76624-14.38855,9.6167-22.25476,14.37811-7.877,4.75537-16.15149,9.43774-24.71735,13.89587-8.56494,4.47046-17.44391,8.69177-26.38092,12.69165-8.93561,3.97235-17.8288,7.96735-26.80432,11.64484-8.95673,3.67-17.9621,6.94367-26.72772,9.79352-8.77979,2.86261-17.37134,5.32288-25.58508,7.40857-4.09424,1.04968,0,0-7.38269,2.10278-3.74486,1.06663-6.04977,1.55011-9.75,2.375-3.90442.87041-5.5,1.31252-13.23669,2.88009a90.84542,90.84542,0,0,1-14.067,2.04014c-4.30493.29643-16.01,0.06039-18.19633,0.17107-1.14567.058-8.54712-.02234-9.125-0.03369-0.58954-.01422-4.09082,0-4.09082,0Z" transform="translate(-682.79883 -840.82414)"/><path d="M1200.91467,840.91931s-2.41711,1.79517-3.75842,2.92444c-0.4596.387-4.50732,4.10352-5.391,5.09216-1.45654,1.63-.94946.84607-4.43188,4.73071-2.80713,3.13135-7.75,8.25-10.75,12.5-3.39368,4.80774-5.45935,6.714-10,12.91675-2.06775,2.82446-14.10669,17.91809-16.25,21.25-2.14844,3.355-17.5238,23.08325-20,26.375-6.07459,8.07544-8.432,10.76733-17.41663,20.87488-6.297,7.084-7.2854,8.25293-15.21643,16.53052-6.451,6.733-11.91834,11.32227-20.39331,19.34454-6.66235,6.3064-13.98828,12.58319-20.84863,18.75-6.90149,6.20374-13.84473,11.52643-20.375,17.375-6.5404,5.8457-13.83093,10.689-20.05621,15.69666-6.2323,4.99731-12.19,9.64319-17.73688,13.80627-11.10327,8.3374-20.59692,14.83063-27.28986,19.26184-3.34821,2.21307-5.994,3.91974-7.80194,5.07385-1.80975,1.15008-2.775,1.76355-2.775,1.76355s0.98126-.57257,2.82129-1.64618c1.83862-1.07782,4.53015-2.67328,7.94012-4.74689,6.81683-4.15289,16.49933-10.255,27.87183-18.15539,5.69141-3.95209,11.78223-8.35211,18.18823-13.11493,6.40076-4.7749,14.44489-10.31287,21.21344-15.93878,6.76819-5.6377,13.05664-10.25732,19.875-16.625,6.82727-6.36273,14.37805-12.39355,21.25-19,6.76111-6.49994,17.38123-15.34039,23.97571-22.15,6.64331-6.86011,9.86646-9.55408,16.02429-16.225,6-6.5,10.89075-11.42224,16.5-17.66675,3.3999-3.78491,20.47546-23.678,23.125-26.45825,3.375-3.54175,15.78809-19.20679,18.16663-22.125,4.95837-6.08337,7.361-9.538,10.91663-14.33337a69.33515,69.33515,0,0,0,5.83337-8.65625c2.30713-3.91284,2.0813-3.584,3.25-5.65625,1.00452-1.78113,1.76965-3.14709,3.4375-6.6875a38.96344,38.96344,0,0,0,1.56494-3.94934Z" transform="translate(-682.79883 -840.82414)"/><path d="M688.62891,1138.80762L716.707,1026.77637h65.94922l-3.13037,12.68555H725.853l-8.77246,35h52.23633l-3.13818,12.68555H713.90234l-9.76758,38.97461H761.623l-3.21387,12.68555H688.62891Z" transform="translate(-682.79883 -840.82414)"/><path d="M1200.91467,840.93035a1.02729,1.02729,0,0,1,1.31552.35882,1.06469,1.06469,0,0,1,.14723.7615" transform="translate(-682.79883 -840.82414)"/><path d="M682.79883,1167l2.47607-14.46h8.51172l-0.27393,1.6377H686.585l-0.77344,4.51758h6.74219l-0.2749,1.63672h-6.74707l-0.86133,5.03027h7.41992L691.80518,1167h-9.00635Z" transform="translate(-682.79883 -840.82414)"/><path d="M693.8457,1167l2.39941-14.46H698.188l1.26025,9.37012q0.24829,1.86475.32031,3.541,0.50024-1.46924,1.63867-3.95508l4.14063-8.95606h1.96484L705.1665,1167h-1.55615l1.17871-7.03223q0.41455-2.44629,1.17871-5.46484-0.5105,1.41064-1.2666,3.03809L700.312,1167h-1.52539l-1.25049-9.27148q-0.16553-1.22314-.248-2.96875-0.18091,1.84424-.37158,3.01758L695.38379,1167H693.8457Z" transform="translate(-682.79883 -840.82414)"/><path d="M707.56592,1167l2.47559-14.46h3.67432a6.20051,6.20051,0,0,1,1.98975.23731,2.7643,2.7643,0,0,1,1.46289,1.16016,3.8023,3.8023,0,0,1,.51709,2.05762,3.92667,3.92667,0,0,1-.55225,2.10742,3.45459,3.45459,0,0,1-1.63721,1.35742,2.95,2.95,0,0,1,1.42969,1.13281,3.2921,3.2921,0,0,1,.49316,1.834,4.86921,4.86921,0,0,1-.5957,2.3457,4.279,4.279,0,0,1-1.5127,1.666,3.77643,3.77643,0,0,1-2.01025.56152h-5.73437Zm1.87109-1.63769h2.69531a8.0224,8.0224,0,0,0,1.4165-.07812,3.25205,3.25205,0,0,0,1.12646-.46387,2.39419,2.39419,0,0,0,.80176-0.97168,3.17079,3.17079,0,0,0,.31445-1.40527,2.03624,2.03624,0,0,0-.55078-1.583,2.90451,2.90451,0,0,0-1.9375-.498H710.293Zm1.13672-6.6377h2.40234a3.6256,3.6256,0,0,0,2.40283-.60449,2.67613,2.67613,0,0,0,.81738-2.04,2.18708,2.18708,0,0,0-.25586-1.09473,1.42569,1.42569,0,0,0-.64844-0.62891,3.86477,3.86477,0,0,0-1.42432-.17871h-2.51562Z" transform="translate(-682.79883 -840.82414)"/><path d="M718.69141,1167l2.47607-14.46h4.91406a5.59207,5.59207,0,0,1,2.30127.3457,2.23983,2.23983,0,0,1,1.04639,1.01563,4.67181,4.67181,0,0,1,.4668,2.16016,4.32129,4.32129,0,0,1-.99316,2.99316,1.70769,1.70769,0,1,0-1.9585,2.67578,14.37323,14.37323,0,0,1,1.1377,2.54394L728.98145,1167H727.208l-0.83789-2.69238a13.28238,13.28238,0,0,0-1.06787-2.59473,2.24376,2.24376,0,0,0-.78906-0.90723,2.902,2.902,0,0,0-1.33057-.22656h-1.80078L720.28223,1167h-1.59082Zm2.959-7.98926h2.14209a14.257,14.257,0,0,0,2.42334-.13281,2.58681,2.58681,0,0,0,1.11963-.52344,2.7569,2.7569,0,0,0,.76074-0.99121,3.1019,3.1019,0,0,0,.28125-1.33105,2.3571,2.3571,0,0,0-.23682-1.10937,1.35632,1.35632,0,0,0-.59375-0.62207,3.23125,3.23125,0,0,0-1.26514-.17285h-3.79541Z" transform="translate(-682.79883 -840.82414)"/><path d="M734.18652,1167l0.95752-5.59277-3.68945-8.86719h1.69775l1.78174,4.22363q0.55,1.3418,1.12256,2.9541a20.43609,20.43609,0,0,1,1.60156-2.92676l2.75635-4.251h1.87988l-5.58545,9.02051L735.77783,1167h-1.59131Z" transform="translate(-682.79883 -840.82414)"/><path d="M739.43359,1162.66016l0.30615-1.78516h4.46777l-0.30566,1.78516h-4.46826Z" transform="translate(-682.79883 -840.82414)"/><path d="M744.98682,1167l2.47607-14.46H752.377a5.59207,5.59207,0,0,1,2.30127.3457,2.23983,2.23983,0,0,1,1.04639,1.01563,4.67181,4.67181,0,0,1,.4668,2.16016,4.32129,4.32129,0,0,1-.99316,2.99316,1.70769,1.70769,0,1,0-1.9585,2.67578,14.37323,14.37323,0,0,1,1.1377,2.54394L755.27686,1167h-1.77344l-0.83789-2.69238a13.28238,13.28238,0,0,0-1.06787-2.59473,2.24377,2.24377,0,0,0-.78906-0.90723,2.902,2.902,0,0,0-1.33057-.22656h-1.80078L746.57764,1167h-1.59082Zm2.959-7.98926h2.14209a14.257,14.257,0,0,0,2.42334-.13281,2.58681,2.58681,0,0,0,1.11963-.52344,2.7569,2.7569,0,0,0,.76074-0.99121,3.1019,3.1019,0,0,0,.28125-1.33105,2.3571,2.3571,0,0,0-.23682-1.10937,1.35633,1.35633,0,0,0-.59375-0.62207,3.23125,3.23125,0,0,0-1.26514-.17285h-3.79541Z" transform="translate(-682.79883 -840.82414)"/><path d="M756.94092,1167l2.47559-14.46h1.59131L758.53223,1167h-1.59131Z" transform="translate(-682.79883 -840.82414)"/><path d="M761.54688,1167l2.47559-14.46h3.57617a6.81616,6.81616,0,0,1,1.833.1875,3.77309,3.77309,0,0,1,1.6499.99609,4.82352,4.82352,0,0,1,1.11816,1.94336,9.03356,9.03356,0,0,1,.394,2.791,10.73119,10.73119,0,0,1-.64551,3.8125,9.451,9.451,0,0,1-1.59668,2.82617,5.10238,5.10238,0,0,1-2.22168,1.55762A6.89467,6.89467,0,0,1,765.814,1167h-4.26709Zm1.87158-1.63769h1.87939a7.73388,7.73388,0,0,0,2.23877-.28125,3.6247,3.6247,0,0,0,1.64844-1.0957,7.02476,7.02476,0,0,0,1.26465-2.28516,9.73007,9.73007,0,0,0,.53662-3.34668,6.12671,6.12671,0,0,0-.46729-2.62109,2.49986,2.49986,0,0,0-1.27295-1.30762,4.94545,4.94545,0,0,0-1.81885-.24707H765.333Z" transform="translate(-682.79883 -840.82414)"/><path d="M773.501,1167l2.47559-14.46h3.57617a6.81616,6.81616,0,0,1,1.833.1875,3.77308,3.77308,0,0,1,1.6499.99609,4.82352,4.82352,0,0,1,1.11816,1.94336,9.03356,9.03356,0,0,1,.394,2.791,10.73119,10.73119,0,0,1-.64551,3.8125,9.451,9.451,0,0,1-1.59668,2.82617,5.10238,5.10238,0,0,1-2.22168,1.55762,6.89467,6.89467,0,0,1-2.31592.3457H773.501Zm1.87158-1.63769H777.252a7.73388,7.73388,0,0,0,2.23877-.28125,3.6247,3.6247,0,0,0,1.64844-1.0957,7.02477,7.02477,0,0,0,1.26465-2.28516,9.73007,9.73007,0,0,0,.53662-3.34668,6.12671,6.12671,0,0,0-.46729-2.62109,2.49986,2.49986,0,0,0-1.27295-1.30762,4.94545,4.94545,0,0,0-1.81885-.24707h-2.09424Z" transform="translate(-682.79883 -840.82414)"/><path d="M785.2085,1167l2.47607-14.46h1.60059l-2.20508,12.82227h6.25586L793.05957,1167H785.2085Z" transform="translate(-682.79883 -840.82414)"/><path d="M794.66748,1167l2.47607-14.46h8.51172l-0.27393,1.6377h-6.92773l-0.77344,4.51758h6.74219l-0.2749,1.63672h-6.74707l-0.86133,5.03027H803.959L803.67383,1167h-9.00635Z" transform="translate(-682.79883 -840.82414)"/><path d="M810.32031,1167l2.47607-14.46h7.65381l-0.27637,1.6377h-6.06738l-0.792,4.626h6.17871l-0.27441,1.63672h-6.18408L811.91113,1167h-1.59082Z" transform="translate(-682.79883 -840.82414)"/><path d="M822.91553,1152.54h1.58105l-1.51123,8.8877a10.86805,10.86805,0,0,0-.1875,1.64648,2.48251,2.48251,0,0,0,.73975,1.84473,2.59679,2.59679,0,0,0,1.90381.72949,3.01628,3.01628,0,0,0,2.50586-1.26172,9.77058,9.77058,0,0,0,1.24268-3.88672l1.35986-7.96h1.59131l-1.45264,8.48438a11.8268,11.8268,0,0,1-1.125,3.71191,5.00363,5.00363,0,0,1-1.74121,1.88477,4.37058,4.37058,0,0,1-2.31348.626,4.22884,4.22884,0,0,1-3.11719-1.13769,4.1155,4.1155,0,0,1-1.14453-3.05664,17.34575,17.34575,0,0,1,.332-2.62207Z" transform="translate(-682.79883 -840.82414)"/><path d="M835.35791,1167l2.19336-12.82227h-3.89062l0.28662-1.6377h9.32617l-0.27637,1.6377h-3.86475L836.94873,1167h-1.59082Z" transform="translate(-682.79883 -840.82414)"/><path d="M844.98926,1152.54h1.58105l-1.51123,8.8877a10.86805,10.86805,0,0,0-.1875,1.64648,2.48251,2.48251,0,0,0,.73975,1.84473,2.59679,2.59679,0,0,0,1.90381.72949,3.01628,3.01628,0,0,0,2.50586-1.26172,9.77058,9.77058,0,0,0,1.24268-3.88672l1.35986-7.96h1.59131l-1.45264,8.48438a11.8268,11.8268,0,0,1-1.125,3.71191,5.00363,5.00363,0,0,1-1.74121,1.88477,4.37058,4.37058,0,0,1-2.31348.626,4.22884,4.22884,0,0,1-3.11719-1.13769,4.1155,4.1155,0,0,1-1.14453-3.05664,17.34574,17.34574,0,0,1,.332-2.62207Z" transform="translate(-682.79883 -840.82414)"/><path d="M854.46777,1167l2.47607-14.46h4.91406a5.59207,5.59207,0,0,1,2.30127.3457,2.23983,2.23983,0,0,1,1.04639,1.01563,4.67181,4.67181,0,0,1,.4668,2.16016,4.32129,4.32129,0,0,1-.99316,2.99316,1.70769,1.70769,0,1,0-1.9585,2.67578,14.37323,14.37323,0,0,1,1.1377,2.54394L864.75781,1167h-1.77344l-0.83789-2.69238a13.28238,13.28238,0,0,0-1.06787-2.59473,2.24376,2.24376,0,0,0-.78906-0.90723,2.902,2.902,0,0,0-1.33057-.22656H857.1582L856.05859,1167h-1.59082Zm2.959-7.98926h2.14209a14.257,14.257,0,0,0,2.42334-.13281,2.58681,2.58681,0,0,0,1.11963-.52344,2.7569,2.7569,0,0,0,.76074-0.99121,3.1019,3.1019,0,0,0,.28125-1.33105,2.3571,2.3571,0,0,0-.23682-1.10937,1.35633,1.35633,0,0,0-.59375-0.62207,3.23125,3.23125,0,0,0-1.26514-.17285H858.2627Z" transform="translate(-682.79883 -840.82414)"/><path d="M866.42188,1167l2.47607-14.46h8.51172l-0.27393,1.6377H870.208l-0.77344,4.51758h6.74219l-0.2749,1.63672h-6.74707l-0.86133,5.03027h7.41992L875.42822,1167h-9.00635Z" transform="translate(-682.79883 -840.82414)"/><path d="M882.44971,1162.32519l1.54834-.17773-0.00977.48438a3.644,3.644,0,0,0,.395,1.7207,2.20956,2.20956,0,0,0,1.00293.93555,3.665,3.665,0,0,0,1.68457.36035,3.06794,3.06794,0,0,0,2.14355-.7168,2.30953,2.30953,0,0,0,.79053-1.78418,2.00757,2.00757,0,0,0-.44873-1.30469,8.104,8.104,0,0,0-2.165-1.44141,15.27,15.27,0,0,1-1.793-1.05566,4.28871,4.28871,0,0,1-1.26172-1.415,3.7453,3.7453,0,0,1-.40723-1.77051,3.70426,3.70426,0,0,1,1.10938-2.80078,4.20784,4.20784,0,0,1,3.043-1.06543,4.80248,4.80248,0,0,1,2.27832.50293,3.7341,3.7341,0,0,1,1.50439,1.46973,4.084,4.084,0,0,1,.55713,2.07129l-0.00977.30566-1.53857.14746,0.00977-.3252a2.5594,2.5594,0,0,0-.3501-1.30664,2.36532,2.36532,0,0,0-1.00146-.93555,3.249,3.249,0,0,0-1.499-.332,2.768,2.768,0,0,0-1.88867.59375,1.97945,1.97945,0,0,0-.67578,1.56348,1.76548,1.76548,0,0,0,.50732,1.35547,14.86977,14.86977,0,0,0,2.51953,1.55957,10.5957,10.5957,0,0,1,2.001,1.2959,3.45019,3.45019,0,0,1,.82422,1.19336,4.252,4.252,0,0,1-.981,4.58594,4.65369,4.65369,0,0,1-3.3374,1.208,4.5107,4.5107,0,0,1-3.38672-1.18945A5.21865,5.21865,0,0,1,882.44971,1162.32519Z" transform="translate(-682.79883 -840.82414)"/><path d="M893.12158,1167l2.47559-14.46h4.94971a4.02084,4.02084,0,0,1,1.9043.35059,2.76474,2.76474,0,0,1,1.0625,1.208,4.32577,4.32577,0,0,1,.438,1.99219,5.77861,5.77861,0,0,1-.70361,2.77734,3.77148,3.77148,0,0,1-1.83936,1.78516,7.06193,7.06193,0,0,1-2.74023.47754h-2.95117L894.7124,1167h-1.59082Zm2.876-7.50586h2.60352a4.969,4.969,0,0,0,2.12207-.35059,2.83078,2.83078,0,0,0,1.18359-1.17871,3.57227,3.57227,0,0,0,.47656-1.81445,2.55406,2.55406,0,0,0-.24561-1.21289,1.40264,1.40264,0,0,0-.66846-0.6416,4.21721,4.21721,0,0,0-1.52295-.1875h-3.02637Z" transform="translate(-682.79883 -840.82414)"/><path d="M901.5459,1167l6.72754-14.46h1.86182l1.96338,14.46h-1.53857l-0.5708-4.16211h-4.80518L903.28174,1167H901.5459Zm4.32178-5.65137h3.917l-0.45312-3.62988q-0.26587-2.15039-.33447-3.60059a27.0049,27.0049,0,0,1-1.1748,2.94922Z" transform="translate(-682.79883 -840.82414)"/><path d="M922.89893,1161.91016l1.56836,0.2666a7.87257,7.87257,0,0,1-2.19434,3.80762,4.70549,4.70549,0,0,1-3.16113,1.26269,4.19765,4.19765,0,0,1-3.39795-1.56836,7.131,7.131,0,0,1-1.29736-4.63574,10.786,10.786,0,0,1,1.62744-6.05664,5.286,5.286,0,0,1,4.56689-2.69238,4.1029,4.1029,0,0,1,3.00342,1.19336,5.1645,5.1645,0,0,1,1.39551,3.35351l-1.47949.168q-0.46289-3.11719-2.85645-3.11719a3.84815,3.84815,0,0,0-3.37891,2.13574,9.59047,9.59047,0,0,0-1.29,5.05469,5.40787,5.40787,0,0,0,.91553,3.418,2.84041,2.84041,0,0,0,2.31494,1.14844,2.954,2.954,0,0,0,2.10742-.86719A5.76635,5.76635,0,0,0,922.89893,1161.91016Z" transform="translate(-682.79883 -840.82414)"/><path d="M925.67041,1167l2.47607-14.46h8.51172l-0.27393,1.6377h-6.92773l-0.77344,4.51758h6.74219l-0.2749,1.63672h-6.74707l-0.86133,5.03027h7.41992L934.67676,1167h-9.00635Z" transform="translate(-682.79883 -840.82414)"/><path d="M941.32324,1167l2.47607-14.46H952.311l-0.27393,1.6377h-6.92773l-0.77344,4.51758h6.74219l-0.2749,1.63672h-6.74707l-0.86133,5.03027h7.41992L950.32959,1167h-9.00635Z" transform="translate(-682.79883 -840.82414)"/><path d="M951.04834,1167l5.65088-7.292-3.34277-7.168h1.75049l1.52246,3.27539q0.78955,1.69189,1.1543,2.66992a30.49354,30.49354,0,0,1,1.87012-2.58984l2.6001-3.35547h2.05078l-5.7251,7.46973L961.8291,1167h-1.72852l-1.92822-4.22754q-0.26514-.58154-0.64648-1.5957a17.432,17.432,0,0,1-1.06006,1.52441L953.14941,1167h-2.10107Z" transform="translate(-682.79883 -840.82414)"/><path d="M963.417,1167l2.47559-14.46h4.94971a4.02084,4.02084,0,0,1,1.9043.35059,2.76473,2.76473,0,0,1,1.0625,1.208,4.32577,4.32577,0,0,1,.438,1.99219,5.77861,5.77861,0,0,1-.70361,2.77734,3.77148,3.77148,0,0,1-1.83936,1.78516,7.06193,7.06193,0,0,1-2.74023.47754H966.0127L965.00781,1167H963.417Zm2.876-7.50586h2.60352a4.969,4.969,0,0,0,2.12207-.35059,2.83078,2.83078,0,0,0,1.18359-1.17871,3.57227,3.57227,0,0,0,.47656-1.81445,2.55406,2.55406,0,0,0-.24561-1.21289,1.40264,1.40264,0,0,0-.66846-0.6416,4.21721,4.21721,0,0,0-1.52295-.1875h-3.02637Z" transform="translate(-682.79883 -840.82414)"/><path d="M974.21729,1167l2.47607-14.46h1.60059l-2.20508,12.82227h6.25586L982.06836,1167h-7.85107Z" transform="translate(-682.79883 -840.82414)"/><path d="M984.39648,1160.94434a10.00529,10.00529,0,0,1,1.98242-6.45117,5.33747,5.33747,0,0,1,4.30029-2.19922,4.46751,4.46751,0,0,1,3.56543,1.71582,7.229,7.229,0,0,1,1.43506,4.77441,10.369,10.369,0,0,1-.93652,4.45313,7.4051,7.4051,0,0,1-2.36719,3.00293,5.14785,5.14785,0,0,1-3.0083,1.00684,4.37037,4.37037,0,0,1-2.4707-.73047,5.26166,5.26166,0,0,1-1.80029-2.209A7.77036,7.77036,0,0,1,984.39648,1160.94434Zm1.55811,0.09473a5.07369,5.07369,0,0,0,1.04443,3.35547,3.13189,3.13189,0,0,0,2.47266,1.25391,3.49822,3.49822,0,0,0,2.13281-.79883,5.99125,5.99125,0,0,0,1.76807-2.5127,9.55376,9.55376,0,0,0,.71924-3.73633,5.33045,5.33045,0,0,0-1.01953-3.4502,3.07812,3.07812,0,0,0-2.46777-1.25879,3.85861,3.85861,0,0,0-3.01465,1.64844A8.50693,8.50693,0,0,0,985.95459,1161.03906Z" transform="translate(-682.79883 -840.82414)"/><path d="M996.56738,1167l2.47559-14.46h4.915a5.59254,5.59254,0,0,1,2.30078.3457,2.23654,2.23654,0,0,1,1.0459,1.01563,4.66571,4.66571,0,0,1,.46777,2.16016,4.317,4.317,0,0,1-.99414,2.99316,1.70751,1.70751,0,1,0-1.958,2.67578,14.338,14.338,0,0,1,1.13769,2.54394L1006.85742,1167H1005.084l-0.83789-2.69238a13.28115,13.28115,0,0,0-1.06836-2.59473,2.23661,2.23661,0,0,0-.78906-0.90723,2.89829,2.89829,0,0,0-1.33008-.22656h-1.80078L998.1582,1167h-1.59082Zm2.959-7.98926h2.14258a14.254,14.254,0,0,0,2.42285-.13281,2.57711,2.57711,0,0,0,1.11914-.52344,2.74075,2.74075,0,0,0,.76074-0.99121,3.1019,3.1019,0,0,0,.28125-1.33105,2.35131,2.35131,0,0,0-.23633-1.10937,1.35873,1.35873,0,0,0-.59375-0.62207,3.23246,3.23246,0,0,0-1.26562-.17285h-3.79492Z" transform="translate(-682.79883 -840.82414)"/><path d="M1008.52148,1167l2.47559-14.46h8.5127l-0.27441,1.6377h-6.92773l-0.77344,4.51758h6.74219l-0.27539,1.63672h-6.74707l-0.86133,5.03027h7.41992L1017.52832,1167h-9.00684Z" transform="translate(-682.79883 -840.82414)"/><path d="M1019.56836,1167l2.47559-14.46h4.915a5.59254,5.59254,0,0,1,2.30078.3457,2.23653,2.23653,0,0,1,1.0459,1.01563,4.66569,4.66569,0,0,1,.46777,2.16016,4.317,4.317,0,0,1-.99414,2.99316,1.70751,1.70751,0,1,0-1.958,2.67578,14.33788,14.33788,0,0,1,1.1377,2.54394L1029.8584,1167H1028.085l-0.83789-2.69238a13.28109,13.28109,0,0,0-1.06836-2.59473,2.23661,2.23661,0,0,0-.78906-0.90723,2.89828,2.89828,0,0,0-1.33008-.22656h-1.80078L1021.15918,1167h-1.59082Zm2.959-7.98926h2.14258a14.254,14.254,0,0,0,2.42285-.13281,2.57711,2.57711,0,0,0,1.11914-.52344,2.74073,2.74073,0,0,0,.76074-0.99121,3.1019,3.1019,0,0,0,.28125-1.33105,2.35131,2.35131,0,0,0-.23633-1.10937,1.35873,1.35873,0,0,0-.59375-0.62207,3.23245,3.23245,0,0,0-1.26562-.17285h-3.79492Z" transform="translate(-682.79883 -840.82414)"/><path d="M1031.89746,1162.32519l1.54883-.17773-0.00977.48438a3.638,3.638,0,0,0,.39453,1.7207,2.20956,2.20956,0,0,0,1.00293.93555,3.665,3.665,0,0,0,1.68457.36035,3.06628,3.06628,0,0,0,2.14355-.7168,2.30747,2.30747,0,0,0,.79-1.78418,2.00984,2.00984,0,0,0-.44824-1.30469,8.104,8.104,0,0,0-2.165-1.44141,15.35646,15.35646,0,0,1-1.793-1.05566,4.28872,4.28872,0,0,1-1.26172-1.415,3.74529,3.74529,0,0,1-.40723-1.77051,3.706,3.706,0,0,1,1.10938-2.80078,4.20863,4.20863,0,0,1,3.043-1.06543,4.80112,4.80112,0,0,1,2.27832.50293,3.73292,3.73292,0,0,1,1.50391,1.46973,4.07482,4.07482,0,0,1,.55762,2.07129l-0.00977.30566-1.53906.14746,0.00977-.3252a2.559,2.559,0,0,0-.34961-1.30664,2.36688,2.36688,0,0,0-1.001-.93555,3.25187,3.25187,0,0,0-1.499-.332,2.76895,2.76895,0,0,0-1.88965.59375,1.981,1.981,0,0,0-.67578,1.56348,1.7675,1.7675,0,0,0,.50781,1.35547,14.86973,14.86973,0,0,0,2.51953,1.55957,10.62936,10.62936,0,0,1,2.001,1.2959,3.4436,3.4436,0,0,1,.82422,1.19336,4.25121,4.25121,0,0,1-.98144,4.58594,4.65088,4.65088,0,0,1-3.33691,1.208,4.51219,4.51219,0,0,1-3.38672-1.18945A5.22087,5.22087,0,0,1,1031.89746,1162.32519Z" transform="translate(-682.79883 -840.82414)"/><path d="M1044.9375,1167l6.72852-14.46h1.86133l1.96387,14.46h-1.53906l-0.57129-4.16211h-4.80469L1046.67383,1167h-1.73633Zm4.32227-5.65137h3.917l-0.45312-3.62988q-0.26514-2.15039-.335-3.60059a26.61365,26.61365,0,0,1-1.17481,2.94922Z" transform="translate(-682.79883 -840.82414)"/><path d="M1057.1084,1167l2.46-14.46h1.5459l1.98438,5.43457q0.87744,2.39209,1.376,4.00488,0.35156,1.11475.76074,2.83106,0.22705-1.86475.54-3.77051l1.47266-8.5h1.53809l-2.47656,14.46h-1.56641l-2.92383-8.3457q-0.77344-2.23389-1.21387-3.9043-0.10693,1.41065-.459,3.46191l-1.5,8.78809h-1.53809Z" transform="translate(-682.79883 -840.82414)"/><path d="M1069.0625,1167l2.47559-14.46h3.57617a6.81617,6.81617,0,0,1,1.833.1875,3.7688,3.7688,0,0,1,1.64941.99609,4.81917,4.81917,0,0,1,1.11914,1.94336,9.06357,9.06357,0,0,1,.39356,2.791,10.72035,10.72035,0,0,1-.64551,3.8125,9.47209,9.47209,0,0,1-1.59668,2.82617,5.0996,5.0996,0,0,1-2.22168,1.55762,6.8937,6.8937,0,0,1-2.31641.3457h-4.2666Zm1.87109-1.63769h1.87988a7.73975,7.73975,0,0,0,2.23926-.28125,3.62977,3.62977,0,0,0,1.64844-1.0957,7.04286,7.04286,0,0,0,1.26465-2.28516,9.73034,9.73034,0,0,0,.53613-3.34668,6.14226,6.14226,0,0,0-.4668-2.62109,2.50237,2.50237,0,0,0-1.27344-1.30762,4.94424,4.94424,0,0,0-1.81836-.24707h-2.09473Z" transform="translate(-682.79883 -840.82414)"/><path d="M1085.623,1167l2.47559-14.46h3.57617a6.81617,6.81617,0,0,1,1.833.1875,3.7688,3.7688,0,0,1,1.64941.99609,4.81917,4.81917,0,0,1,1.11914,1.94336,9.06357,9.06357,0,0,1,.39356,2.791,10.72035,10.72035,0,0,1-.64551,3.8125,9.47209,9.47209,0,0,1-1.59668,2.82617,5.09959,5.09959,0,0,1-2.22168,1.55762,6.8937,6.8937,0,0,1-2.31641.3457h-4.2666Zm1.87109-1.63769h1.87988a7.73975,7.73975,0,0,0,2.23926-.28125,3.62977,3.62977,0,0,0,1.64844-1.0957,7.04286,7.04286,0,0,0,1.26465-2.28516,9.73034,9.73034,0,0,0,.53613-3.34668,6.14226,6.14226,0,0,0-.4668-2.62109,2.50237,2.50237,0,0,0-1.27344-1.30762,4.94424,4.94424,0,0,0-1.81836-.24707h-2.09473Z" transform="translate(-682.79883 -840.82414)"/><path d="M1097.57715,1167l2.47559-14.46h8.5127l-0.27441,1.6377h-6.92773l-0.77344,4.51758h6.74219l-0.27539,1.63672h-6.74707l-0.86133,5.03027h7.41992L1106.584,1167h-9.00684Z" transform="translate(-682.79883 -840.82414)"/><path d="M1112.15332,1167l-2.27344-14.46h1.5293l1.37207,8.62109q0.38525,2.34668.49316,3.78711,0.75879-1.88379,1.23242-2.93945l4.21875-9.46875h1.63672l-6.502,14.46h-1.707Z" transform="translate(-682.79883 -840.82414)"/><path d="M1119.6709,1167l2.47559-14.46h8.5127l-0.27441,1.6377H1123.457l-0.77344,4.51758h6.74219l-0.27539,1.63672h-6.74707l-0.86133,5.03027h7.41992L1128.67773,1167h-9.00684Z" transform="translate(-682.79883 -840.82414)"/><path d="M1130.47168,1167l2.47559-14.46h1.60059l-2.20508,12.82227h6.25586L1138.32227,1167h-7.85059Z" transform="translate(-682.79883 -840.82414)"/><path d="M1140.64941,1160.94434a10.00287,10.00287,0,0,1,1.9834-6.45117,5.33725,5.33725,0,0,1,4.2998-2.19922,4.46616,4.46616,0,0,1,3.56543,1.71582,7.22638,7.22638,0,0,1,1.43555,4.77441,10.35511,10.35511,0,0,1-.9375,4.45313,7.3889,7.3889,0,0,1-2.36719,3.00293,5.14531,5.14531,0,0,1-3.00781,1.00684,4.36924,4.36924,0,0,1-2.4707-.73047,5.26977,5.26977,0,0,1-1.80078-2.209A7.77038,7.77038,0,0,1,1140.64941,1160.94434Zm1.55859,0.09473a5.07386,5.07386,0,0,0,1.04492,3.35547,3.1287,3.1287,0,0,0,2.47168,1.25391,3.49822,3.49822,0,0,0,2.13281-.79883,5.98326,5.98326,0,0,0,1.76855-2.5127,9.554,9.554,0,0,0,.71973-3.73633,5.33045,5.33045,0,0,0-1.01953-3.4502,3.07879,3.07879,0,0,0-2.46777-1.25879,3.85576,3.85576,0,0,0-3.01465,1.64844A8.50142,8.50142,0,0,0,1142.208,1161.03906Z" transform="translate(-682.79883 -840.82414)"/><path d="M1152.82129,1167l2.47559-14.46h4.95019a4.01506,4.01506,0,0,1,1.90332.35059,2.75876,2.75876,0,0,1,1.0625,1.208,4.32587,4.32587,0,0,1,.43848,1.99219,5.77811,5.77811,0,0,1-.70312,2.77734,3.77831,3.77831,0,0,1-1.83984,1.78516,7.06193,7.06193,0,0,1-2.74023.47754H1155.417L1154.41211,1167h-1.59082Zm2.876-7.50586h2.60352a4.969,4.969,0,0,0,2.12207-.35059,2.83078,2.83078,0,0,0,1.18359-1.17871,3.57715,3.57715,0,0,0,.47656-1.81445,2.54783,2.54783,0,0,0-.24609-1.21289,1.39538,1.39538,0,0,0-.668-0.6416,4.21407,4.21407,0,0,0-1.52246-.1875h-3.02734Z" transform="translate(-682.79883 -840.82414)"/><path d="M1163.86816,1167l2.47559-14.46h8.51269l-0.27441,1.6377h-6.92773l-0.77344,4.51758h6.74219l-0.27539,1.63672h-6.74707l-0.86133,5.03027h7.41992L1172.875,1167h-9.00684Z" transform="translate(-682.79883 -840.82414)"/><path d="M1174.915,1167l2.47559-14.46h4.915a5.59253,5.59253,0,0,1,2.30078.3457,2.23654,2.23654,0,0,1,1.0459,1.01563,4.66571,4.66571,0,0,1,.46777,2.16016,4.317,4.317,0,0,1-.99414,2.99316,1.70751,1.70751,0,1,0-1.958,2.67578,14.338,14.338,0,0,1,1.13769,2.54394L1185.20508,1167h-1.77344l-0.83789-2.69238a13.28115,13.28115,0,0,0-1.06836-2.59473,2.23662,2.23662,0,0,0-.78906-0.90723,2.89828,2.89828,0,0,0-1.33008-.22656h-1.80078L1176.50586,1167H1174.915Zm2.959-7.98926h2.14258a14.254,14.254,0,0,0,2.42285-.13281,2.57711,2.57711,0,0,0,1.11914-.52344,2.74074,2.74074,0,0,0,.76074-0.99121,3.1019,3.1019,0,0,0,.28125-1.33105,2.35131,2.35131,0,0,0-.23633-1.10937,1.35873,1.35873,0,0,0-.59375-0.62207,3.23245,3.23245,0,0,0-1.26562-.17285H1178.71Z" transform="translate(-682.79883 -840.82414)"/><path d="M1187.24414,1162.32519l1.54883-.17773-0.00977.48438a3.638,3.638,0,0,0,.39453,1.7207,2.20957,2.20957,0,0,0,1.00293.93555,3.665,3.665,0,0,0,1.68457.36035,3.06628,3.06628,0,0,0,2.14355-.7168,2.30747,2.30747,0,0,0,.79-1.78418,2.00984,2.00984,0,0,0-.44824-1.30469,8.104,8.104,0,0,0-2.165-1.44141,15.35638,15.35638,0,0,1-1.793-1.05566,4.28872,4.28872,0,0,1-1.26172-1.415,3.7453,3.7453,0,0,1-.40723-1.77051,3.706,3.706,0,0,1,1.10938-2.80078,4.20863,4.20863,0,0,1,3.043-1.06543,4.80112,4.80112,0,0,1,2.27832.50293,3.73293,3.73293,0,0,1,1.50391,1.46973,4.07483,4.07483,0,0,1,.55762,2.07129l-0.00976.30566-1.53906.14746,0.00977-.3252a2.55894,2.55894,0,0,0-.34961-1.30664,2.36687,2.36687,0,0,0-1.001-.93555,3.25187,3.25187,0,0,0-1.499-.332,2.76895,2.76895,0,0,0-1.88965.59375,1.981,1.981,0,0,0-.67578,1.56348,1.76751,1.76751,0,0,0,.50781,1.35547,14.8698,14.8698,0,0,0,2.51953,1.55957,10.62936,10.62936,0,0,1,2.001,1.2959,3.44363,3.44363,0,0,1,.82422,1.19336,4.25121,4.25121,0,0,1-.98145,4.58594,4.65089,4.65089,0,0,1-3.33691,1.208,4.51219,4.51219,0,0,1-3.38672-1.18945A5.22087,5.22087,0,0,1,1187.24414,1162.32519Z" transform="translate(-682.79883 -840.82414)"/><path d="M1202.89746,1162.32519l1.54883-.17773-0.00977.48438a3.638,3.638,0,0,0,.39453,1.7207,2.20956,2.20956,0,0,0,1.00293.93555,3.665,3.665,0,0,0,1.68457.36035,3.06628,3.06628,0,0,0,2.14355-.7168,2.30747,2.30747,0,0,0,.79-1.78418,2.00984,2.00984,0,0,0-.44824-1.30469,8.104,8.104,0,0,0-2.165-1.44141,15.35646,15.35646,0,0,1-1.793-1.05566,4.28872,4.28872,0,0,1-1.26172-1.415,3.74529,3.74529,0,0,1-.40723-1.77051,3.706,3.706,0,0,1,1.10938-2.80078,4.20863,4.20863,0,0,1,3.043-1.06543,4.80112,4.80112,0,0,1,2.27832.50293,3.73292,3.73292,0,0,1,1.50391,1.46973,4.07482,4.07482,0,0,1,.55762,2.07129l-0.00977.30566-1.53906.14746,0.00977-.3252a2.559,2.559,0,0,0-.34961-1.30664,2.36688,2.36688,0,0,0-1.001-.93555,3.25187,3.25187,0,0,0-1.499-.332,2.76895,2.76895,0,0,0-1.88965.59375,1.981,1.981,0,0,0-.67578,1.56348,1.7675,1.7675,0,0,0,.50781,1.35547,14.86973,14.86973,0,0,0,2.51953,1.55957,10.62936,10.62936,0,0,1,2.001,1.2959,3.4436,3.4436,0,0,1,.82422,1.19336,4.25121,4.25121,0,0,1-.98144,4.58594,4.65088,4.65088,0,0,1-3.33691,1.208,4.51219,4.51219,0,0,1-3.38672-1.18945A5.22087,5.22087,0,0,1,1202.89746,1162.32519Z" transform="translate(-682.79883 -840.82414)"/><path d="M1214.28906,1160.94434a10.00287,10.00287,0,0,1,1.9834-6.45117,5.33726,5.33726,0,0,1,4.2998-2.19922,4.46615,4.46615,0,0,1,3.56543,1.71582,7.22637,7.22637,0,0,1,1.43555,4.77441,10.35511,10.35511,0,0,1-.9375,4.45313,7.38889,7.38889,0,0,1-2.36719,3.00293,5.14532,5.14532,0,0,1-3.00781,1.00684,4.36924,4.36924,0,0,1-2.4707-.73047,5.26977,5.26977,0,0,1-1.80078-2.209A7.77036,7.77036,0,0,1,1214.28906,1160.94434Zm1.55859,0.09473a5.07386,5.07386,0,0,0,1.04492,3.35547,3.1287,3.1287,0,0,0,2.47168,1.25391,3.49822,3.49822,0,0,0,2.13281-.79883,5.98325,5.98325,0,0,0,1.76856-2.5127,9.554,9.554,0,0,0,.71973-3.73633,5.33044,5.33044,0,0,0-1.01953-3.4502,3.07879,3.07879,0,0,0-2.46777-1.25879,3.85577,3.85577,0,0,0-3.01465,1.64844A8.50142,8.50142,0,0,0,1215.84766,1161.03906Z" transform="translate(-682.79883 -840.82414)"/><path d="M1235.64356,1161.91016l1.56836,0.2666a7.87638,7.87638,0,0,1-2.19434,3.80762,4.70731,4.70731,0,0,1-3.16113,1.26269,4.20058,4.20058,0,0,1-3.39844-1.56836,7.1338,7.1338,0,0,1-1.29687-4.63574,10.78612,10.78612,0,0,1,1.62793-6.05664,5.28527,5.28527,0,0,1,4.56641-2.69238,4.101,4.101,0,0,1,3.00293,1.19336,5.16264,5.16264,0,0,1,1.39648,3.35351l-1.47949.168q-0.46289-3.11719-2.85742-3.11719a3.84784,3.84784,0,0,0-3.37793,2.13574,9.58633,9.58633,0,0,0-1.291,5.05469,5.40779,5.40779,0,0,0,.916,3.418,2.84017,2.84017,0,0,0,2.31445,1.14844,2.95539,2.95539,0,0,0,2.1084-.86719A5.76955,5.76955,0,0,0,1235.64356,1161.91016Z" transform="translate(-682.79883 -840.82414)"/><path d="M1238.415,1167l2.47559-14.46h1.5918l-2.47656,14.46H1238.415Z" transform="translate(-682.79883 -840.82414)"/><path d="M1243.02148,1167l2.47559-14.46h8.5127l-0.27441,1.6377h-6.92773l-0.77344,4.51758h6.74219l-0.27539,1.63672h-6.74707l-0.86133,5.03027h7.41992L1252.02832,1167h-9.00684Z" transform="translate(-682.79883 -840.82414)"/><path d="M1257.03223,1167l2.19336-12.82227H1255.335l0.28711-1.6377h9.3252l-0.27539,1.6377h-3.86523L1258.623,1167h-1.59082Z" transform="translate(-682.79883 -840.82414)"/><path d="M1268.09473,1167l0.957-5.59277-3.68945-8.86719h1.69726l1.78223,4.22363q0.55078,1.3418,1.12207,2.9541a20.40206,20.40206,0,0,1,1.60254-2.92676l2.75586-4.251h1.87988l-5.585,9.02051L1269.68555,1167h-1.59082Z" transform="translate(-682.79883 -840.82414)"/><path d="M978.41113,1058.31787a18.40616,18.40616,0,0,1-.13965-4.35889,16.72821,16.72821,0,0,1,6.19629-12.1123q5.59863-4.59961,15-4.60059a25.72217,25.72217,0,0,1,8.90857,1.456q6.02975-4.20721,11.9602-8.58356c-0.69507-.4787-1.408-0.93793-2.15979-1.35486q-7.02832-3.89795-17.34375-3.89844-14.98022,0-24.231,8.25391-9.25269,8.25293-10.32129,21.70313a29.81645,29.81645,0,0,0,.82526,10.18323Q972.7507,1061.77579,978.41113,1058.31787Z" transform="translate(-682.79883 -840.82414)"/><path d="M1024.97022,1034.238c-3.43756,2.76617-6.89929,5.50751-10.39661,8.18921a16.04167,16.04167,0,0,1,3.48694,4.63623,18.86346,18.86346,0,0,1,1.9082,10.123l-0.27637,2.52637,12.01172-1.14551,0.26563-2.36914a30.058,30.058,0,0,0-3.04395-16.04883A27.35058,27.35058,0,0,0,1024.97022,1034.238Z" transform="translate(-682.79883 -840.82414)"/><path d="M1014.63672,1086.585q-3.81006-3.85693-14.70605-10.04395-13.10742-7.37439-17.50732-11.11017-5.77606,3.84576-11.56989,7.45795a33.25526,33.25526,0,0,0,6.399,6.61707q3.43213,2.751,13.24219,8.17773,12.66724,6.95361,15.88818,11.166a14.606,14.606,0,0,1,2.67285,10.11035,19.53517,19.53517,0,0,1-7.22168,13.82617q-6.564,5.55176-17.05029,5.55273a26.99043,26.99043,0,0,1-12.82959-2.79687,15.24314,15.24314,0,0,1-7.19336-7.24316,27.0147,27.0147,0,0,1-2.00293-13.334l0.37451-3.75586-12.10693,1.376q-1.48975,19.71533,6.73,28.92383,8.21924,9.21094,25.50928,9.209,15.9873,0,26.60059-9.3584a33.70088,33.70088,0,0,0,11.72852-23.41992,29.85055,29.85055,0,0,0-1.30859-12.11035A24.03049,24.03049,0,0,0,1014.63672,1086.585Z" transform="translate(-682.79883 -840.82414)"/><path d="M871.40619,1120.5835l-4.56732,18.22363H879.165l5.8623-23.388Q878.32239,1118.10977,871.40619,1120.5835Z" transform="translate(-682.79883 -840.82414)"/><path d="M883.09473,1102.8374c1.85724-.67523,3.73041-1.37463,5.6087-2.08447l3.1994-12.76416h28.82123c5.567-2.36206,10.778-4.69073,15.74567-7.03613q2.8743-1.353,5.77106-2.775l0.71039-2.87537H895.0791l8.98389-35.84082H951.0708l3.147-12.68555H894.917l-19.7572,78.831C877.82715,1104.70618,880.47943,1103.78845,883.09473,1102.8374Z" transform="translate(-682.79883 -840.82414)"/><path d="M778.77344,1123.80664c3.30664,0.02148,7.05273.0459,11.19775-.08594,0.11877-.00409.23944-0.00928,0.35883-0.01373l8.68512-34.64935h13.94824q7.12354,0,10.17236,1.75879,3.04761,1.75781,5.55371,7.03027a93.07643,93.07643,0,0,1,6.39032,18.90338q6.25891-1.38538,12.48657-2.97943a103.431,103.431,0,0,0-6.164-15.78821,34.3978,34.3978,0,0,0-7.16553-9.53613q15.60278-2.5957,23.98486-11.19531,8.38037-8.5957,9.54-23.19238,0.77051-9.70459-2.29053-16.73633a15.4996,15.4996,0,0,0-7.48-7.87207q-5.25439-2.67334-17.61914-2.67383h-38.0752l-24.31744,97.02625C778.24536,1123.804,778.502,1123.80505,778.77344,1123.80664Zm32.76758-84.72656h29.4043q7.03418,0,9.69531,1.33691a9.38172,9.38172,0,0,1,4.22021,4.81543,17.55228,17.55228,0,0,1,1.15039,8.59668,25.44781,25.44781,0,0,1-2.998,10.31738,23.96264,23.96264,0,0,1-6.50439,7.67969,21.85225,21.85225,0,0,1-8.99561,4.0498q-5.03906,1.03271-18.85693,1.03125h-16.5957Z" transform="translate(-682.79883 -840.82414)"/><path d="M838.35229,1130.82385l1.85083,7.98376h13.74121l-2.894-11.5517Q844.73233,1129.14255,838.35229,1130.82385Z" transform="translate(-682.79883 -840.82414)"/><polygon points="442.176 75.504 450.451 65.518 476.776 54.868 471.919 83.307 463.644 93.293 442.176 75.504"/></svg>